<svg width="240" height="240" viewBox="0 0 240 240" fill="none" xmlns="http://www.w3.org/2000/svg">
  <rect width="240" height="240" rx="48" fill="url(#bg)"/>
  <ellipse cx="120" cy="207" rx="58" ry="14" fill="#DCE7FF"/>
  <rect x="68" y="48" width="96" height="118" rx="28" fill="#FDFEFF" stroke="#315EFB" stroke-width="6"/>
  <rect x="86" y="74" width="42" height="8" rx="4" fill="#315EFB"/>
  <rect x="86" y="92" width="60" height="8" rx="4" fill="#86A7FF"/>
  <rect x="86" y="110" width="54" height="8" rx="4" fill="#C2D4FF"/>
  <circle cx="100" cy="142" r="8" fill="#152033"/>
  <circle cx="132" cy="142" r="8" fill="#152033"/>
  <path d="M103 162C110 169 122 169 129 162" stroke="#315EFB" stroke-width="6" stroke-linecap="round"/>
  <circle cx="169" cy="145" r="33" fill="#315EFB"/>
  <circle cx="169" cy="145" r="18" fill="#152033"/>
  <path d="M188 165L205 182" stroke="#CFE0FF" stroke-width="10" stroke-linecap="round"/>
  <path d="M91 42L108 56H91V42Z" fill="#4F7DFF"/>
  <path d="M144 42L127 56H144V42Z" fill="#4F7DFF"/>
  <rect x="89" y="178" width="14" height="24" rx="7" fill="#315EFB"/>
  <rect x="129" y="178" width="14" height="24" rx="7" fill="#315EFB"/>
  <defs>
    <linearGradient id="bg" x1="34" y1="21" x2="206" y2="215" gradientUnits="userSpaceOnUse">
      <stop stop-color="#F8FBFF"/>
      <stop offset="1" stop-color="#E6EEFF"/>
    </linearGradient>
  </defs>
</svg>
