<svg width="1200" height="900" viewBox="0 0 1200 900" fill="none" xmlns="http://www.w3.org/2000/svg">
  <defs>
    <linearGradient id="lotteBg" x1="92" y1="92" x2="1108" y2="808" gradientUnits="userSpaceOnUse">
      <stop stop-color="#F8F7F4"/>
      <stop offset="1" stop-color="#EEE9E1"/>
    </linearGradient>
    <linearGradient id="lotteBody" x1="0" y1="0" x2="0.95" y2="1">
      <stop stop-color="#C7C1B8"/>
      <stop offset="1" stop-color="#9F9991"/>
    </linearGradient>
  </defs>
  <rect width="1200" height="900" rx="32" fill="#F1EEE8"/>
  <rect x="52" y="52" width="1096" height="796" rx="28" fill="url(#lotteBg)" stroke="#D9D1C7" stroke-width="4"/>
  <rect x="86" y="86" width="170" height="42" rx="21" fill="#EDE7DD"/>
  <text x="171" y="114" text-anchor="middle" font-family="Arial, sans-serif" font-size="22" font-weight="700" fill="#334155">DEFENDANT</text>
  <text x="86" y="182" font-family="Arial, sans-serif" font-size="46" font-weight="700" fill="#111827">Lotte Healthcare</text>

  <rect x="120" y="700" width="960" height="92" rx="24" fill="white" fill-opacity="0.78"/>
  <text x="600" y="760" text-anchor="middle" font-family="Arial, sans-serif" font-size="28" font-weight="700" fill="#111827">롯데헬스케어</text>

  <ellipse cx="598" cy="706" rx="286" ry="34" fill="#D9D3C9"/>
  <rect x="302" y="640" width="592" height="58" rx="24" fill="#F7F7F6"/>
  <rect x="358" y="230" width="500" height="386" rx="42" fill="url(#lotteBody)"/>
  <rect x="376" y="580" width="464" height="72" rx="20" fill="#E8E6E1"/>
  <rect x="394" y="590" width="426" height="60" rx="14" fill="#E3E1DB"/>
  <line x1="420" y1="592" x2="420" y2="650" stroke="#D0CEC8" stroke-width="3"/>
  <line x1="446" y1="592" x2="446" y2="650" stroke="#D0CEC8" stroke-width="3"/>
  <line x1="472" y1="592" x2="472" y2="650" stroke="#D0CEC8" stroke-width="3"/>
  <line x1="498" y1="592" x2="498" y2="650" stroke="#D0CEC8" stroke-width="3"/>
  <line x1="524" y1="592" x2="524" y2="650" stroke="#D0CEC8" stroke-width="3"/>
  <line x1="550" y1="592" x2="550" y2="650" stroke="#D0CEC8" stroke-width="3"/>
  <line x1="576" y1="592" x2="576" y2="650" stroke="#D0CEC8" stroke-width="3"/>
  <line x1="602" y1="592" x2="602" y2="650" stroke="#D0CEC8" stroke-width="3"/>

  <rect x="500" y="574" width="180" height="122" rx="24" fill="rgba(255,255,255,0.18)"/>
  <rect x="534" y="604" width="108" height="86" rx="18" fill="rgba(255,255,255,0.24)" stroke="#E6E2DA" stroke-width="3"/>
  <circle cx="588" cy="652" r="17" fill="#2563EB"/>
  <circle cx="564" cy="640" r="9" fill="#D8CC79"/>
  <circle cx="540" cy="632" r="9" fill="#E5CFA5"/>
  <circle cx="612" cy="624" r="9" fill="#E1C7D9"/>
  <circle cx="628" cy="646" r="9" fill="#F2DC84"/>
  <circle cx="600" cy="674" r="9" fill="#D3C3A6"/>
  <circle cx="570" cy="674" r="9" fill="#E2D18D"/>
</svg>
