<svg xmlns="http://www.w3.org/2000/svg" width="1200" height="900" viewBox="0 0 1200 900" fill="none">
  <rect width="1200" height="900" rx="40" fill="#F8FAFC"/>
  <rect x="48" y="48" width="1104" height="804" rx="32" fill="url(#bg)"/>
  <rect x="96" y="96" width="1008" height="708" rx="28" fill="white" fill-opacity="0.88" stroke="#D7E3FF" stroke-width="2"/>
  <rect x="144" y="144" width="280" height="28" rx="14" fill="#DCE8FF"/>
  <rect x="144" y="204" width="560" height="68" rx="20" fill="#EFF4FF"/>
  <rect x="144" y="316" width="260" height="360" rx="28" fill="#F8FBFF" stroke="#DCE8FF" stroke-width="2"/>
  <rect x="470" y="316" width="260" height="360" rx="28" fill="#F8FBFF" stroke="#DCE8FF" stroke-width="2"/>
  <rect x="796" y="316" width="260" height="360" rx="28" fill="#F8FBFF" stroke="#DCE8FF" stroke-width="2"/>
  <circle cx="274" cy="448" r="72" fill="#E7F0FF"/>
  <circle cx="600" cy="448" r="72" fill="#E7F0FF"/>
  <circle cx="926" cy="448" r="72" fill="#E7F0FF"/>
  <path d="M222 540H326" stroke="#8AA8FF" stroke-width="16" stroke-linecap="round"/>
  <path d="M548 540H652" stroke="#8AA8FF" stroke-width="16" stroke-linecap="round"/>
  <path d="M874 540H978" stroke="#8AA8FF" stroke-width="16" stroke-linecap="round"/>
  <rect x="190" y="612" width="168" height="18" rx="9" fill="#DCE8FF"/>
  <rect x="516" y="612" width="168" height="18" rx="9" fill="#DCE8FF"/>
  <rect x="842" y="612" width="168" height="18" rx="9" fill="#DCE8FF"/>
  <text x="144" y="744" fill="#315EFB" font-family="Pretendard, Noto Sans KR, sans-serif" font-size="34" font-weight="700">이미지 준비 중</text>
  <text x="144" y="788" fill="#64748B" font-family="Pretendard, Noto Sans KR, sans-serif" font-size="22">원문 사례 도판은 후속 OCR/크롭 단계에서 연결됩니다.</text>
  <defs>
    <linearGradient id="bg" x1="72" y1="48" x2="1128" y2="852" gradientUnits="userSpaceOnUse">
      <stop stop-color="#F2F7FF"/>
      <stop offset="1" stop-color="#E9EEF8"/>
    </linearGradient>
  </defs>
</svg>
